<?xml version="1.0" encoding="UTF-8"?>
<svg id="Layer_1" data-name="Layer 1" xmlns="http://www.w3.org/2000/svg" version="1.1" viewBox="0 0 1024 1024">
  <defs>
    <style>
      .cls-1 {
        fill: #126dff;
      }

      .cls-1, .cls-2, .cls-3 {
        stroke-width: 0px;
      }

      .cls-2 {
        fill: #00a9ff;
      }

      .cls-3 {
        fill: #f77;
      }
    </style>
  </defs>
  <path class="cls-1" d="M512,0C229.4,0,0,229.4,0,512s229.4,512,512,512,512-229.4,512-512S794.6,0,512,0M512,921.6c-225.8,0-409.6-183.8-409.6-409.6S286.2,102.4,512,102.4s409.6,183.8,409.6,409.6-183.8,409.6-409.6,409.6"/>
  <g>
    <path class="cls-3" d="M512,844.8c42.5,0,76.8-34.3,76.8-76.8h-153.6c0,42.5,34.3,76.8,76.8,76.8"/>
    <path class="cls-2" d="M716.8,614.4v-133.6c0-108-52.7-200.7-153.6-224.8v-25.6c0-29.2-22-51.2-51.2-51.2s-51.2,22-51.2,51.2v25.6c-100.9,24.1-153.6,116.2-153.6,224.8v133.6h-51.2v102.4h512v-102.4h-51.2ZM614.4,614.4h-204.8v-153.6c0-56.3,46.1-102.4,102.4-102.4s102.4,46.1,102.4,102.4v153.6Z"/>
  </g>
</svg>